<?xml version="1.0" encoding="utf-8"?>
<!-- Generator: Adobe Illustrator 25.4.1, SVG Export Plug-In . SVG Version: 6.00 Build 0)  -->
<svg version="1.1" id="Capa_1" xmlns="http://www.w3.org/2000/svg" xmlns:xlink="http://www.w3.org/1999/xlink" x="0px" y="0px"
	 viewBox="0 0 365 364.5" style="enable-background:new 0 0 365 364.5;" xml:space="preserve">
<style type="text/css">
	.st0{fill:#03131F;}
</style>
<path class="st0" d="M258.6,122.7v-0.9h-4.1c-1.5-3.7-7-8.2-29.8-11.8c-17.2-2.7-40.1-4.2-64.4-4.2s-47.1,1.5-64.4,4.2
	c-23.1,3.6-28.5,8.2-29.9,11.9h-0.8v5.1c0,33.5,12.4,65,34,86.7c-17.1,4.6-25.8,11-25.8,18.9c0,20.5,57.9,25.9,88.5,25.9
	s88.5-5.4,88.5-25.9c0-8-8.7-14.3-25.8-19c1.2-1.2,2.3-2.4,3.4-3.5c5.6,0.9,11.3,1.4,17,1.4c16,0,29-4.1,38.6-12.1
	c10.7-9,16.4-22.3,16.4-38.5C299.9,136.3,277.9,125,258.6,122.7z M257.5,144.2c7.9,2.2,16.7,7.2,16.7,18.6c0,9.3-3.1,16.8-9,21.7
	c-5.6,4.7-13.5,7-23.5,6.9C250,176.8,255.4,160.8,257.5,144.2z M160.2,115.4c45.1,0,76.2,5.1,84,9.2c-7.8,4.1-38.8,9.3-84,9.3
	s-76.2-5.1-84-9.3C84,120.5,115.1,115.4,160.2,115.4z M240.8,232.7c0,5.8-30,16.4-79,16.4s-79-10.6-79-16.4c0-2.3,6.6-7.2,24.8-11.2
	c16,12.8,34.8,19.6,54.2,19.6s38.1-6.8,54.1-19.6C234.2,225.5,240.8,230.4,240.8,232.7L240.8,232.7z M161.8,231.6
	c-45.9,0-83.8-42.6-87-97.3c4.9,1.9,11.8,3.6,21,5c17.2,2.7,40.1,4.2,64.4,4.2s47.1-1.5,64.4-4.2c11.5-1.8,19.5-3.9,24.3-6.5
	C246.5,188.3,208.6,231.6,161.8,231.6L161.8,231.6z M277.4,192.3c-9.7,8.1-24.3,11.3-42.4,9.4l0.8-1.1c2.6,0.2,4.7,0.4,6.6,0.4
	c1.5,0,3,0,4.4-0.1c10-0.7,18.2-3.7,24.6-9c6.1-5.2,10.2-12.4,11.6-20.3c0.5-2.9,0.8-5.8,0.8-8.7c0-19.5-17-26.1-25.4-28.2
	c0-0.7,0.1-1.4,0.1-2.1c4.8,0.7,9.6,2,14.1,3.9c11.8,5.1,17.8,13.4,17.8,24.8C290.3,174.4,285.9,185.2,277.4,192.3z"/>
</svg>
