<?xml version="1.0" encoding="utf-8"?>
<!-- Generator: Adobe Illustrator 25.4.1, SVG Export Plug-In . SVG Version: 6.00 Build 0)  -->
<svg version="1.1" id="Capa_1" xmlns="http://www.w3.org/2000/svg" xmlns:xlink="http://www.w3.org/1999/xlink" x="0px" y="0px"
	 viewBox="0 0 364.5 364.4" style="enable-background:new 0 0 364.5 364.4;" xml:space="preserve">
<style type="text/css">
	.st0{fill:#03131F;}
</style>
<g>
	<path class="st0" d="M182.3,283c55.7,0,100.8-45.1,100.8-100.8S237.9,81.4,182.3,81.4S81.4,126.5,81.4,182.2l0,0
		C81.5,237.8,126.6,282.9,182.3,283z M182.3,102.7c43.9,0,79.5,35.6,79.5,79.5s-35.6,79.5-79.5,79.5s-79.5-35.6-79.5-79.5l0,0
		C102.8,138.3,138.4,102.7,182.3,102.7L182.3,102.7z"/>
	<path class="st0" d="M158.2,234.5c0.7,0.4,1.4,0.6,2.2,0.6c0.9,0,1.9-0.3,2.6-0.8l71.4-48.1c2.2-1.5,2.7-4.4,1.3-6.6
		c-0.3-0.5-0.8-0.9-1.3-1.3l-71.4-48.1c-2.2-1.5-5.1-0.9-6.5,1.3c-0.5,0.8-0.8,1.7-0.8,2.6v96.2C155.7,232,156.7,233.6,158.2,234.5z
		 M165.1,142.9l58.2,39.2l-58.2,39.2V142.9z"/>
</g>
</svg>
