<?xml version="1.0" encoding="utf-8"?>
<!-- Generator: Adobe Illustrator 25.4.1, SVG Export Plug-In . SVG Version: 6.00 Build 0)  -->
<svg version="1.1" id="Capa_1" xmlns="http://www.w3.org/2000/svg" xmlns:xlink="http://www.w3.org/1999/xlink" x="0px" y="0px"
	 viewBox="0 0 361.8 361.8" style="enable-background:new 0 0 361.8 361.8;" xml:space="preserve">
<style type="text/css">
	.st0{fill:#03131F;}
</style>
<g>
	<path class="st0" d="M265.1,251.1c10.2,0,18.5-8.3,18.6-18.5l0.3-102.7c0-10.3-8.3-18.6-18.5-18.6l-168.7-0.5h-0.1
		c-10.2,0-18.5,8.3-18.6,18.5l-0.4,102.6c0,10.3,8.2,18.6,18.5,18.6c0,0,0,0,0,0L265.1,251.1L265.1,251.1z M113.1,235.1h-5.7V235
		H107c-5.2,0-9.4-4.2-9.4-9.4c0,0,0,0,0,0l0.3-89.8c0-5.2,4.2-9.4,9.4-9.4l0,0l147.5,0.5c5.2,0,9.4,4.2,9.4,9.4l-0.3,89.8
		c0,5.2-4.2,9.4-9.4,9.4l0,0L113.1,235.1L113.1,235.1z"/>
	<path class="st0" d="M243.8,141.7h-39.1c-1.1,0-2,0.9-2,2v52c0,1.1,0.9,2,2,2h39.1c1.1,0,2-0.9,2-2v-52
		C245.8,142.6,244.9,141.7,243.8,141.7z M241.8,193.7h-35.2v-48.1h35.2V193.7z"/>
	<path class="st0" d="M116.4,197.6H177c2.2,0,3.9-1.8,3.9-3.9s-1.8-3.9-3.9-3.9h-60.6c-2.2,0-3.9,1.8-3.9,3.9
		S114.2,197.6,116.4,197.6z"/>
	<path class="st0" d="M205.4,208.4h-89c-2.2,0-3.9,1.8-3.9,3.9s1.8,3.9,3.9,3.9h89c2.2,0,3.9-1.8,3.9-3.9S207.5,208.4,205.4,208.4z"
		/>
</g>
</svg>
