<?xml version="1.0" encoding="utf-8"?>
<!-- Generator: Adobe Illustrator 25.4.1, SVG Export Plug-In . SVG Version: 6.00 Build 0)  -->
<svg version="1.1" id="Capa_1" xmlns="http://www.w3.org/2000/svg" xmlns:xlink="http://www.w3.org/1999/xlink" x="0px" y="0px"
	 viewBox="0 0 365 364.5" style="enable-background:new 0 0 365 364.5;" xml:space="preserve">
<style type="text/css">
	.st0{fill:#03131F;}
</style>
<path class="st0" d="M244.2,128.4c-8.1-3.1-15.8-2.6-23.3-0.8c0.4-0.5,0.9-0.9,1.4-1.4c8.3-10.1,11.2-25.3,7-37.7
	c-0.1-0.2-0.2-0.4-0.3-0.6c0-1.2-1-2.1-2.1-2.1c-0.1,0-0.2,0-0.3,0c-19.5,1.8-36.1,15.1-42.1,33.8c-4.4-13.1-14.2-25.4-24.5-33.1
	c-0.6-0.5-1.4-0.6-2.1-0.3l-0.2,0.1c-0.1,0.1-0.3,0.2-0.4,0.3c-0.1,0.1-0.2,0.1-0.3,0.2c-3.9,4.4-6,11-7.5,16.6
	c-0.2,0.8,0,1.6,0.5,2.2c0.3,0.4,0.7,0.7,1.2,0.9c13.9,4.2,24.6,15.3,28.4,29.3c-15.6-2.6-28.9-12.5-45.8-10.4
	c-16.3,2-29,13.3-35.7,27.9c-17.5,37.7,2.7,83,27.3,112.7c12.9,15.5,24.9,13.9,42.5,8c12.8-4.2,21.5-1.8,33.9,1.3
	c6.9,1.7,14.7,3.5,21.8,2.4c17.1-2.7,28.2-23.6,34.4-37.8c9.1-21,16.1-42.5,15.4-65.6C272.9,155.5,263.1,135.5,244.2,128.4z
	 M224.8,91.2c3.1,11.1,0.4,25-7.7,33.3c-7.5,7.7-19.1,10.3-29.6,11.8c0.1-0.2,0.1-0.4,0.1-0.7C186.1,113.9,203.3,94,224.8,91.2z
	 M154.9,102.8c0.9-3.7,2.4-7.1,4.3-10.3c9.5,7.7,18.3,20,21.4,32.5C175.1,114.6,165.9,106.8,154.9,102.8z M230.9,261.4
	c-15.5,14.5-32.8-0.9-50.1-0.2c-8.3,0.3-15.6,4.7-23.5,6.7c-14.1,3.5-22.5-6.7-29.5-17.4c-11.9-18-22.9-37.6-24.3-59.6
	s8.2-49.7,32.6-54.2c17.5-3.2,30.9,8.5,47.6,9.7c0.3,0.1,0.7,0.1,1,0.1c4.8-0.2,9.5-1,14.1-2.6c2.2-0.6,46.4-1.3,48.6-2.2
	c9.9-3.4-22.4-6.9-12.1-4.1c27.9,7.6,29.5,42.3,24.2,65.4C254.8,222.9,246.1,247.2,230.9,261.4L230.9,261.4z"/>
</svg>
